<svg width="20" height="21" viewBox="0 0 20 21" fill="none" xmlns="http://www.w3.org/2000/svg">
<g clip-path="url(#clip0_989_2873)">
<path d="M14.4225 6.74273C10.8526 4.57082 12.5267 1.50531 12.5985 1.37789C12.7028 1.19656 12.7024 0.973477 12.5977 0.792461C12.4929 0.611445 12.2997 0.5 12.0905 0.5C10.2529 0.5 8.81393 1.02211 7.81357 2.05187C6.10424 3.81145 6.18354 6.55 6.21736 7.71945C6.22111 7.84898 6.22436 7.96094 6.22436 8.04406C6.22436 8.91234 6.36365 9.71395 6.48658 10.4212C6.5658 10.8769 6.6342 11.2705 6.64635 11.58C6.65936 11.9112 6.59889 11.9871 6.59631 11.9902C6.58768 12.0004 6.5158 12.0387 6.32147 12.0387C6.09982 12.0387 5.93643 11.9663 5.79166 11.8039C5.22619 11.1699 5.18709 9.43855 5.29521 8.49664C5.31455 8.33055 5.26201 8.16414 5.1508 8.0393C5.03963 7.91445 4.88041 7.84305 4.71322 7.84305C3.19193 7.84305 2.05518 10.3309 2.05518 12.5552C2.05518 13.6009 2.26549 14.6252 2.68029 15.5998C3.08131 16.5419 3.65314 17.3922 4.37998 18.127C5.89373 19.6572 7.88955 20.5 9.99986 20.5C12.1187 20.5 14.114 19.6691 15.6183 18.1605C17.1187 16.6559 17.9449 14.6651 17.9449 12.5552C17.9449 9.86289 15.8384 7.6041 14.4225 6.74273ZM9.99986 19.3281C6.32865 19.3281 3.22709 16.2265 3.22709 12.5552C3.22709 11.6623 3.44014 10.7251 3.81158 9.98387C3.89834 9.8107 3.98736 9.66215 4.07521 9.53699C4.08502 10.5037 4.23814 11.8214 4.91607 12.5828C5.28178 12.9934 5.76775 13.2105 6.3215 13.2105C6.83881 13.2105 7.23303 13.0537 7.49311 12.7445C7.97936 12.1664 7.8301 11.3077 7.64119 10.2205C7.52639 9.55992 7.39627 8.81121 7.39627 8.04402C7.39627 7.94391 7.39279 7.82418 7.38881 7.68547C7.35674 6.57773 7.28998 4.2727 8.65416 2.86844C9.26654 2.23801 10.1215 1.85434 11.2032 1.72305C11.0811 2.12852 10.9758 2.64324 10.9717 3.21957C10.9628 4.48941 11.4485 6.30508 13.8135 7.74391C14.9577 8.44004 16.7731 10.3618 16.7731 12.5552C16.773 16.2898 13.7346 19.3281 9.99986 19.3281Z" fill="#4F4F4F"/>
</g>
<defs>
<clipPath id="clip0_989_2873">
<rect width="20" height="20" fill="white" transform="translate(0 0.5)"/>
</clipPath>
</defs>
</svg>
